# xmcd CD database file
# Copyright (C) 1995-1998 Ti Kan
#
# Track frame offsets:
#	150
#	18927
#	38279
#	52288
#	67362
#	81805
#	96821
#	116975
#	132222
#	153320
#	170829
#	183431
#	200509
#	211884
#	226841
#	238684
#	254286
#	272374
#
# Disc length: 3784 seconds
#
# Revision: 1
# Processed by: cddbd v1.5.1PL0 Copyright (c) Steve Scherf et al.
# Submitted via: CDex 1.30Release
#
DISCID=fb0ec612
DTITLE=Grupo Cimarron and Others - Si, soy llanero
DYEAR=1900
DGENRE=Country
TTITLE0=Llanero, si, soy llanero
TTITLE1=Los diamantes
TTITLE2=Pajarillo
TTITLE3=Un llanero de verdad
TTITLE4=Los merecures
TTITLE5=Y soy llanero
TTITLE6=Seis por derecho
TTITLE7=Numerao
TTITLE8=El gavan restiao
TTITLE9=Quitapesares
TTITLE10=Atardecer en Arauca
TTITLE11=Zumbaquezumba
TTITLE12=Maria Laya
TTITLE13=Puerto Carreno
TTITLE14=Se me murio mi caballo
TTITLE15=Las tres damas
TTITLE16=Soy llanero pelo-liso
TTITLE17=Pajarillo
EXTD=ID3G:   2
EXTT0=
EXTT1=
EXTT2=
EXTT3=
EXTT4=
EXTT5=
EXTT6=
EXTT7=
EXTT8=
EXTT9=
EXTT10=
EXTT11=
EXTT12=
EXTT13=
EXTT14=
EXTT15=
EXTT16=
EXTT17=
PLAYORDER=
